<svg width="512" height="512" viewBox="0 0 512 512" fill="none" xmlns="http://www.w3.org/2000/svg">
<rect width="512" height="512" fill="white"/>
<path d="M333.483 465.308C396.114 431.76 263.003 354.944 233.785 338.881C230.379 337.008 226.298 337.412 223.208 339.772L142.941 401.094C136.419 406.077 127.003 401.515 126.871 393.308L121.348 48.7069C121.211 40.1698 131.146 35.399 137.723 40.8435L400.896 258.697C407.187 263.905 404.92 274.05 397.01 276.085L300.672 300.865C296.798 301.862 293.91 304.961 293.376 308.925C288.796 342.886 270.892 498.833 333.483 465.308Z" stroke="url(#paint0_linear_1119_1879)" stroke-width="24"/>
<defs>
<linearGradient id="paint0_linear_1119_1879" x1="121" y1="27" x2="341.724" y2="473.71" gradientUnits="userSpaceOnUse">
<stop offset="0.0104167" stop-color="#FAA603"/>
<stop offset="0.539219" stop-color="#F85552"/>
<stop offset="0.760884" stop-color="#F701A3"/>
<stop offset="0.963542" stop-color="#5505FF"/>
</linearGradient>
</defs>
</svg>
