<svg width="214" height="60" viewBox="0 0 214 60" fill="none" xmlns="http://www.w3.org/2000/svg">
<path d="M26.7273 49.5869C32.2011 46.6582 20.7107 39.9838 18.0069 38.4934C17.6668 38.3059 17.2572 38.3452 16.9484 38.5808L10.1202 43.7915C9.46792 44.2893 8.52684 43.833 8.51367 43.0126L8.03481 13.1692C8.02111 12.3157 9.0141 11.8385 9.67191 12.3824L21 21.7492L32.4873 31.2477C33.1171 31.7683 32.8903 32.7835 32.099 32.9869L23.9114 35.0905C23.5239 35.1901 23.2347 35.5027 23.1818 35.8992C22.7622 39.0445 21.2584 52.5129 26.7273 49.5869Z" stroke="url(#paint0_linear_572_25798)" stroke-width="3"/>
<path d="M58.0977 39.5039C58.9492 39.5039 59.6406 39.4102 60.1719 39.2227C61.1797 38.8633 61.6836 38.1953 61.6836 37.2188C61.6836 36.6484 61.4336 36.207 60.9336 35.8945C60.4336 35.5898 59.6484 35.3203 58.5781 35.0859L56.75 34.6758C54.9531 34.2695 53.7109 33.8281 53.0234 33.3516C51.8594 32.5547 51.2773 31.3086 51.2773 29.6133C51.2773 28.0664 51.8398 26.7812 52.9648 25.7578C54.0898 24.7344 55.7422 24.2227 57.9219 24.2227C59.7422 24.2227 61.293 24.707 62.5742 25.6758C63.8633 26.6367 64.5391 28.0352 64.6016 29.8711H61.1328C61.0703 28.832 60.6172 28.0938 59.7734 27.6562C59.2109 27.3672 58.5117 27.2227 57.6758 27.2227C56.7461 27.2227 56.0039 27.4102 55.4492 27.7852C54.8945 28.1602 54.6172 28.6836 54.6172 29.3555C54.6172 29.9727 54.8906 30.4336 55.4375 30.7383C55.7891 30.9414 56.5391 31.1797 57.6875 31.4531L60.6641 32.168C61.9688 32.4805 62.9531 32.8984 63.6172 33.4219C64.6484 34.2344 65.1641 35.4102 65.1641 36.9492C65.1641 38.5273 64.5586 39.8398 63.3477 40.8867C62.1445 41.9258 60.4414 42.4453 58.2383 42.4453C55.9883 42.4453 54.2188 41.9336 52.9297 40.9102C51.6406 39.8789 50.9961 38.4648 50.9961 36.668H54.4414C54.5508 37.457 54.7656 38.0469 55.0859 38.4375C55.6719 39.1484 56.6758 39.5039 58.0977 39.5039ZM79.1094 34.5V42H75.6992V34.2305C75.6992 33.543 75.582 32.9883 75.3477 32.5664C75.043 31.9727 74.4648 31.6758 73.6133 31.6758C72.7305 31.6758 72.0586 31.9727 71.5977 32.5664C71.1445 33.1523 70.918 33.9922 70.918 35.0859V42H67.5898V24.7852H70.918V30.8906C71.4023 30.1484 71.9609 29.6328 72.5938 29.3438C73.2344 29.0469 73.9062 28.8984 74.6094 28.8984C75.3984 28.8984 76.1133 29.0352 76.7539 29.3086C77.4023 29.582 77.9336 30 78.3477 30.5625C78.6992 31.0391 78.9141 31.5312 78.9922 32.0391C79.0703 32.5391 79.1094 33.3594 79.1094 34.5ZM82.7188 30.6094C83.6016 29.4844 85.1172 28.9219 87.2656 28.9219C88.6641 28.9219 89.9062 29.1992 90.9922 29.7539C92.0781 30.3086 92.6211 31.3555 92.6211 32.8945V38.7539C92.6211 39.1602 92.6289 39.6523 92.6445 40.2305C92.668 40.668 92.7344 40.9648 92.8438 41.1211C92.9531 41.2773 93.1172 41.4062 93.3359 41.5078V42H89.7031C89.6016 41.7422 89.5312 41.5 89.4922 41.2734C89.4531 41.0469 89.4219 40.7891 89.3984 40.5C88.9375 41 88.4062 41.4258 87.8047 41.7773C87.0859 42.1914 86.2734 42.3984 85.3672 42.3984C84.2109 42.3984 83.2539 42.0703 82.4961 41.4141C81.7461 40.75 81.3711 39.8125 81.3711 38.6016C81.3711 37.0312 81.9766 35.8945 83.1875 35.1914C83.8516 34.8086 84.8281 34.5352 86.1172 34.3711L87.2539 34.2305C87.8711 34.1523 88.3125 34.0547 88.5781 33.9375C89.0547 33.7344 89.293 33.418 89.293 32.9883C89.293 32.4648 89.1094 32.1055 88.7422 31.9102C88.3828 31.707 87.8516 31.6055 87.1484 31.6055C86.3594 31.6055 85.8008 31.8008 85.4727 32.1914C85.2383 32.4805 85.082 32.8711 85.0039 33.3633H81.7812C81.8516 32.2461 82.1641 31.3281 82.7188 30.6094ZM85.2031 39.5859C85.5156 39.8438 85.8984 39.9727 86.3516 39.9727C87.0703 39.9727 87.7305 39.7617 88.332 39.3398C88.9414 38.918 89.2578 38.1484 89.2812 37.0312V35.7891C89.0703 35.9219 88.8555 36.0312 88.6367 36.1172C88.4258 36.1953 88.1328 36.2695 87.7578 36.3398L87.0078 36.4805C86.3047 36.6055 85.8008 36.7578 85.4961 36.9375C84.9805 37.2422 84.7227 37.7148 84.7227 38.3555C84.7227 38.9258 84.8828 39.3359 85.2031 39.5859ZM102.02 32.3086C100.676 32.3086 99.7734 32.7461 99.3125 33.6211C99.0547 34.1133 98.9258 34.8711 98.9258 35.8945V42H95.5625V29.2266H98.75V31.4531C99.2656 30.6016 99.7148 30.0195 100.098 29.707C100.723 29.1836 101.535 28.9219 102.535 28.9219C102.598 28.9219 102.648 28.9258 102.688 28.9336C102.734 28.9336 102.832 28.9375 102.98 28.9453V32.3672C102.77 32.3438 102.582 32.3281 102.418 32.3203C102.254 32.3125 102.121 32.3086 102.02 32.3086ZM115.883 38.25C115.797 39.0078 115.402 39.7773 114.699 40.5586C113.605 41.8008 112.074 42.4219 110.105 42.4219C108.48 42.4219 107.047 41.8984 105.805 40.8516C104.562 39.8047 103.941 38.1016 103.941 35.7422C103.941 33.5312 104.5 31.8359 105.617 30.6562C106.742 29.4766 108.199 28.8867 109.988 28.8867C111.051 28.8867 112.008 29.0859 112.859 29.4844C113.711 29.8828 114.414 30.5117 114.969 31.3711C115.469 32.1289 115.793 33.0078 115.941 34.0078C116.027 34.5938 116.062 35.4375 116.047 36.5391H107.305C107.352 37.8203 107.754 38.7188 108.512 39.2344C108.973 39.5547 109.527 39.7148 110.176 39.7148C110.863 39.7148 111.422 39.5195 111.852 39.1289C112.086 38.918 112.293 38.625 112.473 38.25H115.883ZM112.578 34.3359C112.523 33.4531 112.254 32.7852 111.77 32.332C111.293 31.8711 110.699 31.6406 109.988 31.6406C109.215 31.6406 108.613 31.8828 108.184 32.3672C107.762 32.8516 107.496 33.5078 107.387 34.3359H112.578ZM126.465 42H118.637V24.7266H127.027C129.145 24.7578 130.645 25.3711 131.527 26.5664C132.059 27.3008 132.324 28.1797 132.324 29.2031C132.324 30.2578 132.059 31.1055 131.527 31.7461C131.23 32.1055 130.793 32.4336 130.215 32.7305C131.098 33.0508 131.762 33.5586 132.207 34.2539C132.66 34.9492 132.887 35.793 132.887 36.7852C132.887 37.8086 132.629 38.7266 132.113 39.5391C131.785 40.0781 131.375 40.5312 130.883 40.8984C130.328 41.3203 129.672 41.6094 128.914 41.7656C128.164 41.9219 127.348 42 126.465 42ZM126.383 34.3945H122.082V39H126.324C127.082 39 127.672 38.8984 128.094 38.6953C128.859 38.3203 129.242 37.6016 129.242 36.5391C129.242 35.6406 128.871 35.0234 128.129 34.6875C127.715 34.5 127.133 34.4023 126.383 34.3945ZM128.176 31.1016C128.645 30.8203 128.879 30.3164 128.879 29.5898C128.879 28.7852 128.566 28.2539 127.941 27.9961C127.402 27.8164 126.715 27.7266 125.879 27.7266H122.082V31.5352H126.324C127.082 31.5352 127.699 31.3906 128.176 31.1016ZM142.074 32.3086C140.73 32.3086 139.828 32.7461 139.367 33.6211C139.109 34.1133 138.98 34.8711 138.98 35.8945V42H135.617V29.2266H138.805V31.4531C139.32 30.6016 139.77 30.0195 140.152 29.707C140.777 29.1836 141.59 28.9219 142.59 28.9219C142.652 28.9219 142.703 28.9258 142.742 28.9336C142.789 28.9336 142.887 28.9375 143.035 28.9453V32.3672C142.824 32.3438 142.637 32.3281 142.473 32.3203C142.309 32.3125 142.176 32.3086 142.074 32.3086ZM155.656 30.8438C156.734 32.1953 157.273 33.793 157.273 35.6367C157.273 37.5117 156.734 39.1172 155.656 40.4531C154.578 41.7812 152.941 42.4453 150.746 42.4453C148.551 42.4453 146.914 41.7812 145.836 40.4531C144.758 39.1172 144.219 37.5117 144.219 35.6367C144.219 33.793 144.758 32.1953 145.836 30.8438C146.914 29.4922 148.551 28.8164 150.746 28.8164C152.941 28.8164 154.578 29.4922 155.656 30.8438ZM150.734 31.6406C149.758 31.6406 149.004 31.9883 148.473 32.6836C147.949 33.3711 147.688 34.3555 147.688 35.6367C147.688 36.918 147.949 37.9062 148.473 38.6016C149.004 39.2969 149.758 39.6445 150.734 39.6445C151.711 39.6445 152.461 39.2969 152.984 38.6016C153.508 37.9062 153.77 36.918 153.77 35.6367C153.77 34.3555 153.508 33.3711 152.984 32.6836C152.461 31.9883 151.711 31.6406 150.734 31.6406ZM169.367 42L167.363 32.6953L165.336 42H161.867L158.281 29.2266H161.867L163.859 38.3906L165.699 29.2266H169.086L171.031 38.4258L173.023 29.2266H176.504L172.801 42H169.367ZM187.156 29.8125C188.156 30.4531 188.73 31.5547 188.879 33.1172H185.539C185.492 32.6875 185.371 32.3477 185.176 32.0977C184.809 31.6445 184.184 31.418 183.301 31.418C182.574 31.418 182.055 31.5312 181.742 31.7578C181.438 31.9844 181.285 32.25 181.285 32.5547C181.285 32.9375 181.449 33.2148 181.777 33.3867C182.105 33.5664 183.266 33.875 185.258 34.3125C186.586 34.625 187.582 35.0977 188.246 35.7305C188.902 36.3711 189.23 37.1719 189.23 38.1328C189.23 39.3984 188.758 40.4336 187.812 41.2383C186.875 42.0352 185.422 42.4336 183.453 42.4336C181.445 42.4336 179.961 42.0117 179 41.168C178.047 40.3164 177.57 39.2344 177.57 37.9219H180.957C181.027 38.5156 181.18 38.9375 181.414 39.1875C181.828 39.6328 182.594 39.8555 183.711 39.8555C184.367 39.8555 184.887 39.7578 185.27 39.5625C185.66 39.3672 185.855 39.0742 185.855 38.6836C185.855 38.3086 185.699 38.0234 185.387 37.8281C185.074 37.6328 183.914 37.2969 181.906 36.8203C180.461 36.4609 179.441 36.0117 178.848 35.4727C178.254 34.9414 177.957 34.1758 177.957 33.1758C177.957 31.9961 178.418 30.9844 179.34 30.1406C180.27 29.2891 181.574 28.8633 183.254 28.8633C184.848 28.8633 186.148 29.1797 187.156 29.8125ZM202.648 38.25C202.562 39.0078 202.168 39.7773 201.465 40.5586C200.371 41.8008 198.84 42.4219 196.871 42.4219C195.246 42.4219 193.812 41.8984 192.57 40.8516C191.328 39.8047 190.707 38.1016 190.707 35.7422C190.707 33.5312 191.266 31.8359 192.383 30.6562C193.508 29.4766 194.965 28.8867 196.754 28.8867C197.816 28.8867 198.773 29.0859 199.625 29.4844C200.477 29.8828 201.18 30.5117 201.734 31.3711C202.234 32.1289 202.559 33.0078 202.707 34.0078C202.793 34.5938 202.828 35.4375 202.812 36.5391H194.07C194.117 37.8203 194.52 38.7188 195.277 39.2344C195.738 39.5547 196.293 39.7148 196.941 39.7148C197.629 39.7148 198.188 39.5195 198.617 39.1289C198.852 38.918 199.059 38.625 199.238 38.25H202.648ZM199.344 34.3359C199.289 33.4531 199.02 32.7852 198.535 32.332C198.059 31.8711 197.465 31.6406 196.754 31.6406C195.98 31.6406 195.379 31.8828 194.949 32.3672C194.527 32.8516 194.262 33.5078 194.152 34.3359H199.344Z" fill="white"/>
<defs>
<linearGradient id="paint0_linear_572_25798" x1="8" y1="11" x2="27.4183" y2="50.344" gradientUnits="userSpaceOnUse">
<stop offset="0.0104167" stop-color="#FAA603"/>
<stop offset="0.539219" stop-color="#F85552"/>
<stop offset="0.760884" stop-color="#F701A3"/>
<stop offset="0.963542" stop-color="#5505FF"/>
</linearGradient>
</defs>
</svg>
